<?xml version="1.0" encoding="UTF-8"?>
<svg width="43px" height="23px" viewBox="0 0 43 23" version="1.1" xmlns="http://www.w3.org/2000/svg" xmlns:xlink="http://www.w3.org/1999/xlink">
    <!-- Generator: Sketch 48.2 (47327) - http://www.bohemiancoding.com/sketch -->
    <title>Page 1</title>
    <desc>Created with Sketch.</desc>
    <defs></defs>
    <g id="Desktop-HD" stroke="none" stroke-width="1" fill="none" fill-rule="evenodd" transform="translate(-283.000000, -1002.000000)">
        <g id="Group-10" transform="translate(232.000000, 936.000000)" stroke="#1D1D1B">
            <g id="SEARCH-BAR" transform="translate(52.000000, 24.000000)">
                <g id="Group-8">
                    <g id="Page-1" transform="translate(0.000000, 43.000000)">
                        <path d="M41,19.9235023 C40.8393403,20.1682836 40.7223003,20.4685858 40.5058387,20.6424937 C40.282238,20.8221588 39.9651757,20.96331 39.6833498,20.9743613 C38.6806837,21.0135369 37.6754633,20.9993092 36.6714872,20.9870669 C36.0303546,20.9792582 35.5337045,20.5536206 35.3881741,19.8760548 C35.3370879,19.6384204 35.2461805,19.581907 35.0210735,19.5820393 C25.3395064,19.5871348 15.6578738,19.5871348 5.97630671,19.5818408 C5.74916933,19.5817746 5.66278115,19.6432512 5.61182588,19.878768 C5.45830511,20.5891566 4.94914537,20.9865375 4.22804313,20.9912359 C3.32217891,20.9971255 2.41605272,20.9828978 1.51031949,20.9955373 C0.802971246,21.0053973 0.325183706,20.6943087 0.0700798722,20.0289191 C0.0552779553,19.9904052 0.0237092652,19.9585089 0,19.9235023 C0,15.6441638 0,11.3648915 0,7.08555297 C0.24121885,6.6207398 0.512041534,6.18557302 1.07399042,6.07009765 C1.22240256,6.03965715 1.37559585,6.01894438 1.52669329,6.0180841 C2.38874121,6.01298863 3.25092013,6.00915048 4.11290256,6.0167606 C5.08229712,6.02529718 5.65066454,6.6030049 5.65315335,7.5936446 C5.6593099,10.0192891 5.65596965,12.4449998 5.65642812,14.8706443 C5.65649361,15.0002811 5.65642812,15.1299179 5.65642812,15.2807969 L35.3156054,15.2807969 C35.3251677,15.1445426 35.3429824,15.0073618 35.3431134,14.8702472 C35.3452093,12.4555878 35.3436374,10.0409283 35.3464537,7.62633504 C35.3473706,6.80596361 35.6819856,6.29793816 36.3724361,6.08432527 C36.5456054,6.0307897 36.7367859,6.0207311 36.919976,6.0188782 C37.6400958,6.0117313 38.362508,6.05103925 39.0800735,6.00676818 C39.9672061,5.95204146 40.6370911,6.22183692 41,7.08555297 L41,19.9235023 Z" id="Stroke-1"></path>
                        <path d="M21.0008431,7.92746741 C21.0008431,6.12449588 21.0006423,4.28383585 21.001044,2.44317582 C21.001111,2.06629078 20.9963566,1.68927644 21.0066019,1.31264997 C21.0260211,0.596826964 21.6083282,0.00945517209 22.3481315,0.00745115211 C25.7832481,-0.00185784393 29.2184987,-0.00302146843 32.6536823,0.00725721469 C33.4345336,0.0095844637 33.9814845,0.600511775 33.993136,1.41582468 C34.0059928,2.32009021 33.996819,3.22467897 33.9969529,4.12913844 C33.9970868,5.29205184 33.9969529,6.4549006 33.9969529,7.61774935 C33.9969529,7.7334007 33.9969529,7.84905204 33.9969529,8 C33.8761523,7.95888527 33.7971364,7.92236039 33.7139018,7.90522925 C33.2819258,7.81614733 32.8494141,7.66028629 32.4161658,7.65750652 C29.1483888,7.63669057 25.880277,7.63397545 22.612567,7.65886408 C22.0823568,7.66287212 21.5534189,7.83114516 21.0008431,7.92746741 Z" id="Stroke-3"></path>
                        <path d="M19.9711938,7.96666135 C18.9572822,7.4160276 17.8675366,7.6179866 16.8086739,7.60751608 C14.5440369,7.5850976 12.2788639,7.59030074 10.0140929,7.60533204 C9.0093591,7.61201262 7.97742688,7.44268568 7,8 C7.00009247,7.82823208 7.00009247,7.7233984 7.00009247,7.61856472 C7.00022646,5.6073255 6.99948955,3.59602204 7.00076239,1.58471858 C7.00149929,0.506576167 7.51847027,0.00456931504 8.63059094,0.00418389711 C11.9108143,0.00302764333 15.1910377,0.00823078536 18.4711942,8.53622205e-06 C19.1196018,-0.00166160813 19.5915547,0.241665577 19.870841,0.800650046 C19.9408468,0.940749463 19.9905542,1.10590104 19.9911572,1.25981127 C20.000335,3.44224029 19.9995311,5.62466931 20,7.80709833 C20,7.84641096 19.9862668,7.88572358 19.9711938,7.96666135 Z" id="Stroke-5"></path>
                        <path d="M19.9683862,14 L7.02979475,14 C7.0198235,13.9019593 7.00329399,13.8139266 7.00302631,13.7259556 C7.00095175,12.97499 6.99747186,12.2239626 7.00289247,11.4730587 C7.00951765,10.5586302 7.5940065,10.011777 8.58356873,10.0103561 C11.8598248,10.0058464 15.1360808,10.0211054 18.4121361,10.0000393 C19.3023205,9.99429399 20.0432709,10.6192956 19.9980322,11.4639157 C19.9579465,12.213028 19.9903363,12.9654763 19.9887971,13.7163801 C19.9885964,13.8061426 19.9762159,13.8958434 19.9683862,14 Z" id="Stroke-7"></path>
                        <path d="M21.0104064,13.9752476 C21.0104064,13.0022558 20.9804821,12.0513746 21.0221217,11.1031345 C21.0454855,10.570022 21.699402,10.0691541 22.3062564,10.0220461 C22.4393427,10.0117278 22.5735669,10.0114207 22.7072557,10.0114207 C25.9066804,10.010868 29.106306,10.0301534 32.3053961,10.0001197 C33.3762447,9.99004711 34.043818,10.6163315 33.99776,11.5454091 C33.9618107,12.2700859 33.9860447,12.9974651 33.9936094,13.7235546 C33.9955508,13.9081786 33.9575262,14.0003063 33.7210772,13.9999992 C29.5406437,13.9939802 25.3602102,13.9950858 21.1797767,13.9939802 C21.1366643,13.9939802 21.0936188,13.9847674 21.0104064,13.9752476 Z" id="Stroke-9"></path>
                    </g>
                </g>
            </g>
        </g>
    </g>
</svg>