<?xml version="1.0" encoding="UTF-8"?>
<svg width="46px" height="18px" viewBox="0 0 46 18" version="1.1" xmlns="http://www.w3.org/2000/svg" xmlns:xlink="http://www.w3.org/1999/xlink">
    <!-- Generator: Sketch 48.2 (47327) - http://www.bohemiancoding.com/sketch -->
    <title>Page 1</title>
    <desc>Created with Sketch.</desc>
    <defs></defs>
    <g id="Desktop-HD" stroke="none" stroke-width="1" fill="none" fill-rule="evenodd" transform="translate(-452.000000, -1005.000000)">
        <g id="Group-10" transform="translate(232.000000, 936.000000)" stroke="#1D1D1B">
            <g id="SEARCH-BAR" transform="translate(52.000000, 24.000000)">
                <g id="Group-8">
                    <g id="Page-1" transform="translate(169.000000, 46.000000)">
                        <path d="M43.9940401,9.86950282 C43.9940401,9.86950282 44.0604702,15.9608315 43.7497652,15.9726293 C42.6443542,16.0144513 41.5361273,15.9992626 40.4292722,15.9861932 C39.7224418,15.977857 39.1748991,15.5234658 39.014456,14.8001276 C38.9581349,14.54644 38.8579121,14.4861088 38.609738,14.4862501 C27.9360855,14.4916898 17.2623608,14.4916898 6.58870826,14.4860382 C6.33829576,14.4859675 6.24305525,14.5515971 6.18687851,14.8030241 C6.01762623,15.5614024 5.45629208,15.985628 4.66129736,15.9906438 C3.66260782,15.9969313 2.66362944,15.9817425 1.6650843,15.9952358 C0.885252973,16.0057619 0.358505792,15.6736579 0.077261067,14.9633185 C0.0609423743,14.9222029 0.0261387909,14.8881518 0,14.8507804 C0,10.2823545 0,5.71399932 0,1.14557348 C0.265936925,0.649360217 0.564511235,0.184796091 1.1840439,0.0615198746 C1.34766407,0.0290229923 1.51655532,0.00691098328 1.68313595,0.00599259313 C2.63351929,0.000552897617 3.58404703,-0.00354453537 4.53435815,0.00457968521 C5.60308811,0.0136929413 6.22969702,0.630427251 6.23244088,1.68798883 C6.2392283,4.27749583 6.23554576,6.86707348 6.23605121,9.45658048 C6.23612341,9.59497481 6.23605121,9.7332985 6.23605121,9.89444065 L38.9344511,9.89444065 L43.9940401,9.86950282 Z" id="Stroke-1"></path>
                        <path d="M8,8.97809122 L8,0.0206831655 C8.12255084,0.0137059278 8.23259177,0.00225415729 8.34255548,0.00210247821 C9.28126251,0.000661526951 10.2200468,-0.00176533833 11.1586766,0.00202663867 C12.3017122,0.00657701106 12.9852788,0.411256796 12.9870549,1.0963912 C12.992692,3.36444848 12.9736183,5.63265744 12.9999509,7.90071472 C13.0071325,8.51698682 12.2258805,9.02988963 11.1701054,8.99864374 C10.233715,8.97088647 9.29315465,8.99325913 8.35452484,8.99219738 C8.24232171,8.99212154 8.13019579,8.98347583 8,8.97809122 Z" id="Stroke-3"></path>
                        <path d="M40.9718691,9.98992998 L14.0707209,9.98992998 C14.0469949,9.86762601 14.0078328,9.75780675 14.0072611,9.64806456 C14.0022587,8.71124852 13.9939689,7.77435541 14.0069038,6.83761643 C14.0226258,5.69688337 15.4088785,5.01469386 17.7558175,5.01292134 C25.5257786,5.00729551 32.4913445,5.02633085 40.2610198,5.00005129 C42.3722001,4.99288414 44,5.73248793 44,9.92565681 C44,10.0375569 40.9718691,9.98992998 40.9718691,9.98992998 Z" id="Stroke-5"></path>
                    </g>
                </g>
            </g>
        </g>
    </g>
</svg>