<?xml version="1.0" encoding="UTF-8"?>
<svg width="30px" height="23px" viewBox="0 0 30 23" version="1.1" xmlns="http://www.w3.org/2000/svg" xmlns:xlink="http://www.w3.org/1999/xlink">
    <!-- Generator: Sketch 48.2 (47327) - http://www.bohemiancoding.com/sketch -->
    <title>Page 1</title>
    <desc>Created with Sketch.</desc>
    <defs></defs>
    <g id="Desktop-HD" stroke="none" stroke-width="1" fill="none" fill-rule="evenodd" transform="translate(-374.000000, -1002.000000)">
        <g id="Group-10" transform="translate(232.000000, 936.000000)" stroke="#1D1D1B">
            <g id="SEARCH-BAR" transform="translate(52.000000, 24.000000)">
                <g id="Group-8">
                    <g id="Page-1" transform="translate(91.000000, 43.000000)">
                        <path d="M28,19.9235023 C27.8312946,20.1682836 27.7083935,20.4685858 27.4810918,20.6424937 C27.2462935,20.8221588 26.9133532,20.96331 26.6174139,20.9743613 C25.5645356,21.0135369 24.5089752,20.9993092 23.4547214,20.9870669 C22.7814818,20.9792582 22.2599601,20.5536206 22.1071418,19.8760548 C22.0534972,19.6384204 21.9580374,19.581907 21.7216573,19.5820393 C11.555251,19.5871348 16.441998,19.5871348 6.27559171,19.5818408 C6.03707961,19.5817746 5.94636524,19.6432512 5.8928582,19.878768 C5.73164933,20.5891566 5.19699158,20.9865375 4.43977756,20.9912359 C3.48854894,20.9971255 2.53704522,20.9828978 1.58595416,20.9955373 C0.843182912,21.0053973 0.341468447,20.6943087 0.0735893733,20.0289191 C0.0580461972,19.9904052 0.0248965917,19.9585089 0,19.9235023 C0,15.6441638 0,11.3648915 0,7.08555297 C0.253298749,6.6207398 0.537683851,6.18557302 1.12784311,6.07009765 C1.28361875,6.03965715 1.44448374,6.01894438 1.60314794,6.0180841 C2.508366,6.01298863 3.41372162,6.00915048 4.31887091,6.0167606 C5.33681139,6.02529718 5.93364184,6.6030049 5.93625529,7.5936446 C5.94272015,10.0192891 5.93921262,12.4449998 5.93969405,14.8706443 C5.93976282,15.0002811 5.93969405,15.1299179 5.93969405,15.2807969 L22.030939,15.2807969 C22.0409801,15.1445426 22.059687,15.0073618 22.0598245,14.8702472 C22.0620253,12.4555878 22.0603747,10.0409283 22.0633321,7.62633504 C22.0642949,6.80596361 22.415667,6.29793816 23.1406942,6.08432527 C23.3225356,6.0307897 23.5232902,6.0207311 23.7156542,6.0188782 C24.4718366,6.0117313 25.2304261,6.05103925 25.9839263,6.00676818 C26.9154852,5.95204146 27.6189171,6.22183692 28,7.08555297 L28,19.9235023 Z" id="Stroke-1"></path>
                        <path d="M21.9689779,8.96249402 C20.8770731,8.34303105 19.7035009,8.57023492 18.5631873,8.55845559 C16.1243474,8.5332348 13.6849304,8.53908834 11.2459462,8.55599855 C10.1639252,8.5635142 9.05261356,8.37302139 8,9 C8.00009959,8.80676109 8.00009959,8.6888232 8.00009959,8.57088531 C8.00024388,6.30824119 7.99945029,4.0455248 8.00082103,1.78280841 C8.00161462,0.569898187 8.5583526,0.00514047942 9.75602101,0.00470688425 C13.2885693,0.00340609874 16.8211176,0.00925963353 20.3535937,9.6032498e-06 C21.0518789,-0.00186930915 21.5601359,0.271873774 21.8609057,0.900731302 C21.9362965,1.05834315 21.9898276,1.24413868 21.9904769,1.41728768 C22.0003607,3.87252033 21.999495,6.32775297 22,8.78298562 C22,8.82721233 21.9852104,8.87143903 21.9689779,8.96249402 Z" id="Stroke-3"></path>
                        <path d="M21.9659543,15 L8.03208665,15 C8.02134839,14.8774492 8.00354738,14.7674082 8.0032591,14.6574445 C8.00102497,13.7187375 7.99727739,12.7799532 8.00311496,11.8413234 C8.01024978,10.6982878 8.63969931,10.0147212 9.70538171,10.0129451 C13.2336575,10.007308 16.7619332,10.0263817 20.2899927,10.0000491 C21.2486529,9.99286749 22.0465994,10.7741195 21.9978809,11.8298946 C21.9547116,12.766285 21.9895929,13.7068453 21.9879354,14.6454752 C21.9877191,14.7576783 21.9743864,14.8698042 21.9659543,15 Z" id="Stroke-5"></path>
                    </g>
                </g>
            </g>
        </g>
    </g>
</svg>