<?xml version="1.0" encoding="UTF-8"?>
<svg width="15px" height="16px" viewBox="0 0 15 16" version="1.1" xmlns="http://www.w3.org/2000/svg" xmlns:xlink="http://www.w3.org/1999/xlink">
    <!-- Generator: Sketch 48.2 (47327) - http://www.bohemiancoding.com/sketch -->
    <title>Group 9</title>
    <desc>Created with Sketch.</desc>
    <defs></defs>
    <g id="Desktop-HD" stroke="none" stroke-width="1" fill="none" fill-rule="evenodd" transform="translate(-815.000000, -1007.000000)">
        <g id="Group-10" transform="translate(232.000000, 936.000000)" stroke="#1D1D1B">
            <g id="SEARCH-BAR" transform="translate(52.000000, 24.000000)">
                <g id="Group-7" transform="translate(527.000000, 0.000000)">
                    <g id="Group-9" transform="translate(5.000000, 48.000000)">
                        <path d="M12.9711938,7.96666135 C11.9572822,7.4160276 10.8675366,7.6179866 9.8086739,7.60751608 C7.54403687,7.5850976 5.27886391,7.59030074 3.0140929,7.60533204 C2.0093591,7.61201262 0.97742688,7.44268568 0,8 C9.24736317e-05,7.82823208 9.24736317e-05,7.7233984 9.24736317e-05,7.61856472 C0.000226456003,5.6073255 -0.000510447039,3.59602204 0.000762385487,1.58471858 C0.00149928853,0.506576167 0.518470268,0.00456931504 1.63059094,0.00418389711 C4.91081434,0.00302764333 8.19103774,0.00823078536 11.4711942,8.53622205e-06 C12.1196018,-0.00166160813 12.5915547,0.241665577 12.870841,0.800650046 C12.9408468,0.940749463 12.9905542,1.10590104 12.9911572,1.25981127 C13.000335,3.44224029 12.9995311,5.62466931 13,7.80709833 C13,7.84641096 12.9862668,7.88572358 12.9711938,7.96666135 Z" id="Stroke-5"></path>
                        <path d="M12.9683862,14 L0.0297947467,14 C0.0198235036,13.9019593 0.0032939931,13.8139266 0.00302630872,13.7259556 C0.000951754772,12.97499 -0.00252814217,12.2239626 0.00289246653,11.4730587 C0.00951765494,10.5586302 0.594006499,10.011777 1.58356873,10.0103561 C4.85982478,10.0058464 8.13608083,10.0211054 11.4121361,10.0000393 C12.3023205,9.99429399 13.0432709,10.6192956 12.9980322,11.4639157 C12.9579465,12.213028 12.9903363,12.9654763 12.9887971,13.7163801 C12.9885964,13.8061426 12.9762159,13.8958434 12.9683862,14 Z" id="Stroke-7"></path>
                    </g>
                </g>
            </g>
        </g>
    </g>
</svg>